<svg width="122" height="85" viewBox="0 0 122 85" fill="none" xmlns="http://www.w3.org/2000/svg">
<path d="M54.3406 42.4787C56.9611 38.4907 58.5379 33.9045 58.924 29.147C59.3371 25.0899 58.9357 25.0054 63.6446 25.2219C70.8683 25.5366 77.4916 26.5023 83.8331 30.0164C88.2872 32.5606 91.945 35.9267 93.3378 41.086C94.9219 46.7296 94.0329 59.3925 90.6218 64.3129C87.7368 59.9275 82.7478 56.4848 78.6959 53.258C75.6236 50.767 67.0044 44.414 67.8257 53.2398C68.3696 59.1884 76.2911 64.9074 79.8064 69.3C81.7011 71.5572 83.4261 73.9532 84.9674 76.4683C86.4108 78.9539 86.9166 82.1373 89.6876 83.5276C94.349 85.8531 101.037 79.8224 105.127 77.8637C109.217 75.905 120.474 72.7635 121.163 67.0501C122.863 53.4829 99.7414 69.441 98.7306 68.1376C97.5437 66.5605 103.473 56.9333 104.191 54.6189C106.35 48.2547 106.441 41.3721 104.451 34.9676C100.224 22.7493 87.321 16.0782 75.4047 13.9304C72.1075 13.3582 68.7698 13.0473 65.4223 13.0007C62.7454 12.93 58.785 13.854 56.3122 13.0692C53.8394 12.2844 52.6241 9.95844 50.9427 8.33036C48.4026 5.84964 45.3531 3.95762 42.0068 2.78613C30.5981 -1.42276 16.6235 -1.08249 5.99091 5.31577C3.67879 6.71421 0.292506 9.09116 0.011999 12.0791C-0.133683 13.6702 1.05454 17.277 3.17662 16.3638C3.76031 16.1228 4.25619 12.9029 4.93806 12.1197C6.73753 10.1107 10.7111 9.19482 13.2042 8.62149C21.3804 6.71239 39.6571 5.80624 44.9 14.5789C44.4013 13.7395 31.1363 19.0527 29.7024 19.6436C25.0662 21.4354 20.6509 23.7624 16.5455 26.5775C8.95347 32.1024 0.746163 41.3945 2.24755 51.5012C5.92365 76.0986 47.7459 55.5129 54.3406 42.4787C57.2151 38.1941 53.0877 44.9547 54.3406 42.4787ZM13.1481 52.3242C5.13249 49.526 22.7842 35.5294 25.0751 34.136C28.4609 32.1426 46.0281 23.0832 49.7954 26.3893C51.56 27.9411 47.3213 36.2959 46.2626 38.0151C43.8642 41.3692 40.8635 44.2438 37.4159 46.4901C33.2668 49.399 17.4869 57.2643 13.0757 52.2062C11.6567 51.801 14.2833 53.6318 13.1481 52.3242Z" fill="#292929"/>
</svg>
