<svg width="26" height="26" viewBox="0 0 26 26" fill="none" xmlns="http://www.w3.org/2000/svg">
<path fill-rule="evenodd" clip-rule="evenodd" d="M13 26C20.1797 26 26 20.1797 26 13C26 5.82029 20.1797 0 13 0C5.82029 0 0 5.82029 0 13C0 20.1797 5.82029 26 13 26ZM14.149 9.27405C14.7836 8.63944 14.7836 7.61056 14.149 6.97595C13.5145 6.34135 12.4856 6.34135 11.8509 6.97595L6.97595 11.8509C6.34135 12.4856 6.34135 13.5145 6.97595 14.149L11.8509 19.024C12.4856 19.6586 13.5145 19.6586 14.149 19.024C14.7836 18.3895 14.7836 17.3605 14.149 16.726L12.0481 14.625H17.875C18.7725 14.625 19.5 13.8975 19.5 13C19.5 12.1025 18.7725 11.375 17.875 11.375H12.0481L14.149 9.27405Z" fill="#FEF200"/>
</svg>
