<svg width="49" height="43" viewBox="0 0 49 43" fill="none" xmlns="http://www.w3.org/2000/svg">
<path d="M18.2578 28.3627L26.2152 30.7752C26.205 30.8259 26.1848 30.8867 26.1645 30.9374C25.9516 31.5152 25.5157 31.8396 24.8062 31.9511C22.1909 32.3667 17.8524 32.1032 17.8118 32.1032C17.1428 32.0626 16.565 32.5694 16.5245 33.2385C16.4839 33.9075 16.9908 34.4853 17.6598 34.5258C17.8524 34.536 22.3024 34.8097 25.1914 34.3434C28.0601 33.8872 28.8811 31.3632 28.7291 29.7717C28.6784 29.275 28.3439 28.8594 27.8675 28.7175L18.9573 26.0211C14.5579 24.6932 9.73286 27.1463 9.53012 27.2477C9.50985 27.2578 9.47944 27.2679 9.45917 27.2882L0.589529 32.6505C0.011735 32.9952 -0.170726 33.7453 0.173923 34.3231C0.407067 34.6982 0.8024 34.911 1.21801 34.911C1.43088 34.911 1.64375 34.8502 1.84648 34.7387L10.6756 29.4169C11.0608 29.2142 14.9431 27.3592 18.2578 28.3627Z" fill="#FF0000"/>
<path d="M48.6274 26.3251C47.928 25.0479 45.7486 23.0104 42.444 24.4701C39.3219 25.8588 32.7229 29.0316 32.6519 29.062C32.0437 29.356 31.7903 30.0757 32.0843 30.6839C32.3782 31.2921 33.1081 31.5455 33.7062 31.2516C33.7771 31.2211 40.3356 28.0585 43.4273 26.69C44.3092 26.2947 45.0492 26.2947 45.6878 26.69C45.708 26.7002 45.7182 26.7103 45.7384 26.7204L29.2054 38.8338C28.0296 39.6954 26.5395 40.0502 25.1102 39.8272L10.3613 37.4755C10.0166 37.4248 9.66184 37.5161 9.38815 37.7391L5.65783 40.851C5.14086 41.2768 5.0699 42.0472 5.50578 42.5641C5.74906 42.848 6.09371 43 6.43836 43C6.71205 43 6.98574 42.9088 7.21889 42.7162L10.5235 39.959L24.7352 42.2296C26.803 42.5641 28.9622 42.037 30.655 40.8004L48.2929 27.8862C48.7693 27.5212 48.9214 26.8624 48.6274 26.3251Z" fill="#FF0000"/>
<path d="M26.0935 24.9262C27.9891 24.9262 29.763 24.1862 31.1112 22.8481C33.8785 20.0808 33.8785 15.5902 31.1112 12.8229C29.7732 11.4849 27.9891 10.7449 26.0935 10.7449C24.198 10.7449 22.424 11.4849 21.0759 12.8229C18.3085 15.5902 18.3085 20.0808 21.0759 22.8481C22.424 24.1862 24.198 24.9262 26.0935 24.9262ZM22.7991 14.5461C23.681 13.6643 24.8467 13.1777 26.0935 13.1777C27.3404 13.1777 28.5061 13.6643 29.388 14.5461C31.2025 16.3606 31.2025 19.3205 29.388 21.135C28.5061 22.0169 27.3404 22.5035 26.0935 22.5035C24.8467 22.5035 23.681 22.0169 22.7991 21.135C20.9846 19.3205 20.9846 16.3606 22.7991 14.5461Z" fill="#FF0000"/>
<path d="M34.4158 11.0693C35.8957 11.0693 37.2845 10.4915 38.3286 9.44743C40.4877 7.28831 40.4877 3.781 38.3286 1.62188C37.2845 0.577794 35.8957 0 34.4158 0C32.9358 0 31.5471 0.577794 30.503 1.62188C28.3439 3.781 28.3439 7.28831 30.503 9.44743C31.5471 10.5016 32.946 11.0693 34.4158 11.0693ZM32.2263 3.34512C32.8142 2.75719 33.5947 2.43281 34.4259 2.43281C35.2571 2.43281 36.0377 2.75719 36.6256 3.34512C37.8319 4.55139 37.8319 6.52805 36.6256 7.73432C36.0377 8.32225 35.2571 8.64663 34.4259 8.64663C33.5947 8.64663 32.8142 8.32225 32.2263 7.73432C31.02 6.51792 31.02 4.55139 32.2263 3.34512Z" fill="#FF0000"/>
</svg>
