<svg width="48" height="55" viewBox="0 0 48 55" fill="none" xmlns="http://www.w3.org/2000/svg">
<path d="M47.1722 45.8862C47.1271 45.0104 46.3687 44.345 45.4929 44.3901L18.937 45.9357C18.2811 43.7527 16.5469 41.9621 14.1861 41.3296C14.0953 41.3052 14.0045 41.2809 13.9137 41.2566C13.8003 41.2262 13.6724 41.2041 13.5558 41.185L11.6872 9.43332C11.6658 9.01397 11.4672 8.62015 11.1526 8.34124L2.63833 0.756048C1.97826 0.177748 0.979857 0.226508 0.401556 0.886585C-0.176744 1.54666 -0.127984 2.54506 0.532092 3.12336L8.56629 10.2758L10.3796 41.4166C9.82082 41.5953 9.28086 41.8399 8.76805 42.1647C7.22964 43.1393 6.16666 44.6548 5.76641 46.421C4.96512 50.0016 7.10592 53.5434 10.647 54.4923C10.7378 54.5166 10.8286 54.5409 10.9194 54.5653C14.5796 55.3878 18.2268 53.0806 19.0524 49.4092C19.0767 49.3184 19.0927 49.2132 19.1057 49.1194L45.673 47.5768C46.5519 47.5203 47.2173 46.762 47.1722 45.8862ZM11.6187 51.456C9.6453 51.0124 8.42676 49.068 8.86431 47.1172C9.08267 46.1661 9.65207 45.3576 10.4701 44.8469C11.2912 44.3249 12.2602 44.1588 13.2114 44.3772C13.2568 44.3893 13.3135 44.4045 13.3589 44.4167C15.243 44.9215 16.3912 46.8106 15.9628 48.7273C15.5169 50.6637 13.5695 51.8936 11.6187 51.456Z" fill="#FF0000"/>
<path d="M17.3705 40.6134C17.4128 41.3182 17.9048 41.8879 18.5404 42.0582C18.6993 42.1008 18.8643 42.1207 19.0384 42.1065L44.6928 40.6113C45.1122 40.5899 45.506 40.3913 45.7849 40.0768C46.0638 39.7622 46.2104 39.3514 46.189 38.9321L44.7185 13.5032C44.697 13.0839 44.4984 12.69 44.1839 12.4111C43.8694 12.1322 43.4585 11.9856 43.0392 12.0071L17.3817 13.5136C16.5059 13.5587 15.8405 14.3171 15.8856 15.1929L17.3705 40.6134ZM28.8146 16.0175L29.1698 22.1828C29.2121 22.8875 29.7042 23.4573 30.3397 23.6276C30.4986 23.6702 30.6636 23.6901 30.8377 23.6759C31.7135 23.6308 32.379 22.8724 32.3338 21.9966L31.9787 15.8313L41.6419 15.2699L42.9375 37.5378L20.4471 38.8468L19.1484 16.5902L28.8146 16.0175Z" fill="#FF0000"/>
</svg>
