<svg width="52" height="36" viewBox="0 0 52 36" fill="none" xmlns="http://www.w3.org/2000/svg">
<path d="M49.1674 8.30092C47.4352 6.40734 44.973 5.37248 42.2384 5.37248H35.1025V1.3211C35.1025 0.594495 34.5141 0 33.7951 0H1.30735C0.588309 0 0 0.594495 0 1.3211V30.3743C0 31.1009 0.588309 31.6954 1.30735 31.6954H6.51498C6.93987 34.1395 9.04253 36 11.581 36C14.1194 36 16.2221 34.1395 16.647 31.6954H33.7951H36.6604C37.0853 34.1395 39.1879 36 41.7264 36C44.2648 36 46.3675 34.1395 46.7924 31.6954H50.6926C51.4117 31.6954 52 31.1009 52 30.3743V16.7229C51.9891 13.233 51.0195 10.3156 49.1674 8.30092ZM2.61471 2.6422H32.4877V6.69358V29.0642H16.4182C15.71 27.0606 13.8035 25.6183 11.581 25.6183C9.35848 25.6183 7.45192 27.0606 6.74377 29.0642H2.61471V2.6422ZM11.581 33.3578C10.1865 33.3578 9.05343 32.2128 9.05343 30.8037C9.05343 29.3945 10.1865 28.2495 11.581 28.2495C12.9755 28.2495 14.1085 29.3945 14.1085 30.8037C14.1085 32.2128 12.9755 33.3578 11.581 33.3578ZM41.7264 33.3578C40.3319 33.3578 39.1988 32.2128 39.1988 30.8037C39.1988 29.3945 40.3319 28.2495 41.7264 28.2495C43.1209 28.2495 44.2539 29.3945 44.2539 30.8037C44.2539 32.2128 43.1209 33.3578 41.7264 33.3578ZM49.3744 29.0532H46.5636C45.8554 27.0495 43.9489 25.6073 41.7264 25.6073C39.5039 25.6073 37.5973 27.0495 36.8892 29.0532H35.1133V8.01468H42.2493C46.6507 8.01468 49.3853 11.3505 49.3853 16.7229V29.0532H49.3744Z" fill="#FE0000"/>
</svg>
