<svg width="48" height="41" viewBox="0 0 48 41" fill="none" xmlns="http://www.w3.org/2000/svg">
<path d="M45.0951 17.8303H43.9587V11.0019C43.9587 8.2098 41.6858 5.94671 38.9035 5.94671H37.8552L37.865 3.40932C37.865 1.52832 36.3367 0 34.4557 0H4.14409C1.881 0 0.0293907 1.82222 0 4.0853C0 4.1049 0 4.12449 0 4.14409V37.5907C0 39.4717 1.52832 41 3.40932 41H38.9133C41.7054 41 43.9685 38.7271 43.9685 35.9448V29.1066H45.1049C46.5744 29.1066 47.7697 27.9114 47.7697 26.4418V20.4951C47.7599 19.0256 46.5646 17.8303 45.0951 17.8303ZM4.14409 2.35125H34.4557C35.0337 2.35125 35.5137 2.82151 35.5137 3.39952L35.5039 5.94671H4.14409C3.1546 5.94671 2.35125 5.14337 2.35125 4.15388C2.35125 3.1644 3.1546 2.35125 4.14409 2.35125ZM41.6074 35.935C41.6074 37.4241 40.3926 38.639 38.9035 38.639H3.39952C2.82151 38.639 2.34146 38.1687 2.34146 37.5809V7.8865C2.89008 8.15102 3.49749 8.29797 4.14409 8.29797H38.9035C40.3926 8.29797 41.6074 9.51278 41.6074 11.0019V17.8303H33.5838C32.1142 17.8303 30.919 19.0256 30.919 20.4951V26.4418C30.919 27.9114 32.1142 29.1066 33.5838 29.1066H41.6074V35.935ZM45.4086 26.4418C45.4086 26.6182 45.2714 26.7553 45.0951 26.7553H33.5935C33.4172 26.7553 33.28 26.6182 33.28 26.4418V20.4951C33.28 20.3286 33.4172 20.1816 33.5935 20.1816H45.0951C45.2616 20.1816 45.4086 20.3188 45.4086 20.4951V26.4418Z" fill="#FF0000"/>
</svg>
