<svg width="48" height="50" viewBox="0 0 48 50" fill="none" xmlns="http://www.w3.org/2000/svg">
<path d="M40.6198 19.0126V17.0903C40.6198 12.4895 38.9916 8.21429 36.0399 5.04202C33.0147 1.78571 28.855 0 24.3172 0H22.7311C18.1933 0 14.0336 1.78571 11.0084 5.04202C8.05672 8.21429 6.42857 12.4895 6.42857 17.0903V19.0126C2.84664 19.2542 0 22.2374 0 25.8824V28.8866C0 32.6786 3.08824 35.7668 6.88025 35.7668H10.7563C11.4496 35.7668 12.0168 35.1996 12.0168 34.5063V20.2521C12.0168 19.5588 11.4496 18.9916 10.7563 18.9916H8.94958V17.0903C8.94958 8.78151 14.874 2.52101 22.7206 2.52101H24.3067C32.1639 2.52101 38.0777 8.78151 38.0777 17.0903V18.9916H36.271C35.5777 18.9916 35.0105 19.5588 35.0105 20.2521V34.4958C35.0105 35.1891 35.5777 35.7563 36.271 35.7563H38.0357C37.521 42.3319 32.9937 43.855 30.8929 44.2017C30.3151 42.4265 28.645 41.145 26.6807 41.145H23.5294C21.0924 41.145 19.1071 43.1303 19.1071 45.5672C19.1071 48.0042 21.0924 50 23.5294 50H26.6912C28.729 50 30.4412 48.6134 30.9559 46.7437C31.9853 46.5966 33.6134 46.229 35.2311 45.2836C37.5105 43.9496 40.2101 41.229 40.5672 35.7458C44.1702 35.5252 47.0273 32.5315 47.0273 28.8761V25.8718C47.0378 22.2374 44.2017 19.2437 40.6198 19.0126ZM9.51681 33.2353H6.90126C4.4958 33.2353 2.54202 31.2815 2.54202 28.8761V25.8718C2.54202 23.4664 4.4958 21.5126 6.90126 21.5126H9.51681V33.2353ZM26.6912 47.479H23.5294C22.479 47.479 21.6282 46.6282 21.6282 45.5777C21.6282 44.5273 22.479 43.6765 23.5294 43.6765H26.6912C27.7416 43.6765 28.5924 44.5273 28.5924 45.5777C28.5924 46.6282 27.7416 47.479 26.6912 47.479ZM44.5168 28.8761C44.5168 31.2815 42.563 33.2353 40.1576 33.2353H37.542V21.5126H40.1576C42.563 21.5126 44.5168 23.4664 44.5168 25.8718V28.8761Z" fill="#FF0000"/>
</svg>
