<svg width="43" height="50" viewBox="0 0 43 50" fill="none" xmlns="http://www.w3.org/2000/svg">
<path d="M12.1255 34.2607H37.5112C40.3552 34.2607 42.6667 31.9506 42.6667 29.1081V18.4311C42.6667 17.7682 42.124 17.2258 41.4607 17.2258C40.7974 17.2258 40.2547 17.7682 40.2547 18.4311V29.1081C40.2547 30.6147 39.0287 31.8501 37.5112 31.8501H12.1255C10.618 31.8501 9.38191 30.6247 9.38191 29.1081V22.8204V15.7794V14.8654V8.23623C9.38191 8.19605 9.38191 8.14583 9.37186 8.10566C9.37186 8.09561 9.37186 8.08557 9.37186 8.07552C9.37186 8.04539 9.36181 8.01526 9.36181 7.99517C9.36181 7.97508 9.35176 7.94495 9.34171 7.92486C9.34171 7.91482 9.33166 7.89473 9.33166 7.88468C9.32161 7.85455 9.31156 7.83446 9.30151 7.80433C9.30151 7.79429 9.29146 7.78424 9.29146 7.7742C9.28141 7.75411 9.27136 7.72398 9.26131 7.70389C9.25126 7.69384 9.25126 7.6838 9.24121 7.66371C9.23116 7.64362 9.22111 7.62354 9.21106 7.60345C9.20101 7.5934 9.19096 7.57331 9.18091 7.56327C9.17087 7.55323 9.16082 7.53314 9.15077 7.52309C9.14072 7.50301 9.12062 7.48292 9.11057 7.47287C9.10052 7.46283 9.09047 7.45278 9.08042 7.44274C9.06032 7.42265 9.05027 7.40256 9.03017 7.38247C9.02012 7.37243 9.01007 7.36239 9.00002 7.36239C8.97992 7.3423 8.95982 7.32221 8.93972 7.31217C8.92967 7.30212 8.91962 7.29208 8.90957 7.29208C8.88947 7.27199 8.86937 7.26194 8.84927 7.2519C8.82917 7.23181 8.79902 7.22177 8.77892 7.21172C8.76888 7.20168 8.75883 7.20168 8.74878 7.19163C8.70858 7.17155 8.66838 7.15146 8.63823 7.13137L1.67375 4.18842C1.06072 3.92727 0.357238 4.21855 0.0959442 4.83125C-0.165349 5.44394 0.126094 6.14704 0.739128 6.40819L6.98002 9.03977V14.8754V15.7895V22.8305V29.1181V37.0731C6.98002 39.7248 9.00002 41.9144 11.5828 42.1957C11.0904 42.9791 10.7989 43.9132 10.7989 44.9076C10.7989 47.7099 13.0802 50 15.8941 50C18.698 50 20.9894 47.72 20.9894 44.9076C20.9894 43.9233 20.708 43.0092 20.2256 42.2258H31.9737C31.4914 43.0092 31.21 43.9233 31.21 44.9076C31.21 47.7099 33.4913 50 36.3052 50C39.1091 50 41.4004 47.72 41.4004 44.9076C41.4004 42.0952 39.089 39.8051 36.275 39.8051H12.1255C10.618 39.8051 9.38191 38.5798 9.38191 37.0631V33.4673C10.1758 33.9695 11.1205 34.2607 12.1255 34.2607ZM18.5573 44.8975C18.5573 46.374 17.3514 47.5793 15.874 47.5793C14.3967 47.5793 13.1908 46.374 13.1908 44.8975C13.1908 43.4211 14.3967 42.2157 15.874 42.2157C17.3514 42.2157 18.5573 43.4211 18.5573 44.8975ZM38.9583 44.8975C38.9583 46.374 37.7523 47.5793 36.275 47.5793C34.7977 47.5793 33.5917 46.374 33.5917 44.8975C33.5917 43.4211 34.7977 42.2157 36.275 42.2157C37.7523 42.2157 38.9583 43.4211 38.9583 44.8975Z" fill="#FF0000"/>
<path d="M12.3775 32.3878C12.4501 32.6061 12.6524 32.7439 12.8662 32.7439C12.9196 32.7439 12.9731 32.7363 13.0265 32.7171L20.9521 30.0827C21.0819 30.0406 21.1888 29.9448 21.2499 29.8223C21.311 29.6998 21.3224 29.5581 21.2805 29.4279L18.6806 21.5475C18.6386 21.4173 18.5431 21.3101 18.421 21.2488C18.2988 21.1875 18.1576 21.1761 18.0278 21.2182L14.065 22.5392L10.1022 23.8565C9.83109 23.9445 9.68602 24.2394 9.77383 24.5113L12.3775 32.3878ZM13.9008 23.6803L14.5307 25.5911C14.6033 25.8093 14.8056 25.9472 15.0194 25.9472C15.0728 25.9472 15.1263 25.9395 15.1797 25.9204C15.4508 25.8323 15.5959 25.5375 15.5081 25.2656L14.8781 23.3548L17.8636 22.3631L20.1428 29.2632L13.1945 31.5722L10.9153 24.6759L13.9008 23.6803Z" fill="#FF0000"/>
<path d="M20.8134 31.5668C20.8363 31.7957 21.0035 31.9745 21.2121 32.0213C21.2643 32.033 21.3181 32.0372 21.3745 32.0302L29.685 31.1951C29.8209 31.1825 29.9462 31.1125 30.0326 31.0063C30.1191 30.9001 30.1613 30.7644 30.1489 30.6281L29.3395 22.3699C29.3271 22.2337 29.2575 22.1082 29.1517 22.0216C29.0459 21.9351 28.9106 21.893 28.7747 21.9057L24.6186 22.3269L20.4634 22.7445C20.1796 22.7711 19.9734 23.027 19.9995 23.3115L20.8134 31.5668ZM24.2083 23.4044L24.4041 25.4066C24.4271 25.6355 24.5943 25.8143 24.8029 25.8611C24.855 25.8728 24.9088 25.877 24.9652 25.87C25.249 25.8435 25.4551 25.5875 25.4291 25.3031L25.2333 23.3008L28.3636 22.9868L29.0749 30.2184L21.7893 30.9499L21.0772 23.7221L24.2083 23.4044Z" fill="#FF0000"/>
<path d="M30.4812 31.5868C30.5042 31.8157 30.6714 31.9945 30.88 32.0413C30.9321 32.053 30.986 32.0572 31.0423 32.0503L39.3528 31.2152C39.4887 31.2025 39.614 31.1325 39.7005 31.0263C39.7869 30.9201 39.8292 30.7844 39.8167 30.6482L39.0074 22.3899C38.9949 22.2537 38.9253 22.1282 38.8195 22.0417C38.7138 21.9551 38.5785 21.913 38.4426 21.9257L34.2865 22.347L30.1312 22.7645C29.8474 22.7911 29.6413 23.047 29.6673 23.3315L30.4812 31.5868ZM33.8762 23.4244L34.072 25.4267C34.0949 25.6555 34.2621 25.8343 34.4707 25.8811C34.5229 25.8928 34.5767 25.897 34.633 25.8901C34.9168 25.8635 35.123 25.6076 35.0969 25.3231L34.9011 23.3208L38.0315 23.0068L38.7428 30.2384L31.4572 30.9699L30.745 23.7421L33.8762 23.4244Z" fill="#FF0000"/>
<path d="M25.1549 22.748C25.1778 22.9768 25.345 23.1556 25.5536 23.2024C25.6058 23.2141 25.6596 23.2184 25.716 23.2114L34.0265 22.3763C34.1624 22.3636 34.2877 22.2936 34.3741 22.1874C34.4606 22.0812 34.5028 21.9455 34.4904 21.8093L33.681 13.5511C33.6686 13.4148 33.599 13.2893 33.4932 13.2028C33.3874 13.1163 33.2521 13.0741 33.1162 13.0868L28.9601 13.5081L24.8049 13.9257C24.5211 13.9522 24.3149 14.2082 24.341 14.4926L25.1549 22.748ZM28.5498 14.5855L28.7456 16.5878C28.7685 16.8166 28.9358 16.9954 29.1444 17.0422C29.1965 17.0539 29.2503 17.0582 29.3067 17.0512C29.5905 17.0246 29.7966 16.7687 29.7706 16.4842L29.5748 14.4819L32.7051 14.168L33.4164 21.3995L26.1308 22.1311L25.4187 14.9032L28.5498 14.5855Z" fill="#FF0000"/>
<path d="M15.7082 21.4421C15.7311 21.6709 15.8983 21.8497 16.1069 21.8965C16.1591 21.9082 16.2129 21.9125 16.2692 21.9055L24.5798 21.0704C24.7157 21.0577 24.8409 20.9877 24.9274 20.8815C25.0139 20.7753 25.0561 20.6396 25.0437 20.5034L24.2343 12.2452C24.2219 12.1089 24.1522 11.9834 24.0465 11.8969C23.9407 11.8104 23.8054 11.7682 23.6695 11.7809L19.5134 12.2022L15.3581 12.6197C15.0744 12.6463 14.8682 12.9022 14.8943 13.1867L15.7082 21.4421ZM19.1031 13.2796L19.2989 15.2819C19.3218 15.5107 19.489 15.6895 19.6976 15.7363C19.7498 15.748 19.8036 15.7523 19.86 15.7453C20.1437 15.7187 20.3499 15.4628 20.3238 15.1783L20.1281 13.176L23.2584 12.8621L23.9697 20.0936L16.6841 20.8252L15.9719 13.5973L19.1031 13.2796Z" fill="#FF0000"/>
<path d="M21.4377 11.4991C21.4607 11.7279 21.6279 11.9067 21.8365 11.9536C21.8886 11.9653 21.9425 11.9695 21.9988 11.9626L30.3088 11.1283C30.4447 11.1156 30.57 11.0456 30.6564 10.9395C30.7429 10.8333 30.7851 10.6976 30.7726 10.5613L29.9624 2.30259C29.95 2.16636 29.8804 2.04083 29.7746 1.95429C29.6688 1.86775 29.5335 1.82559 29.3976 1.83825L25.2418 2.25912L21.0868 2.67625C20.803 2.70281 20.5969 2.95871 20.623 3.24322L21.4377 11.4991ZM24.8316 3.33656L25.0276 5.33894C25.0506 5.56779 25.2178 5.74663 25.4264 5.79346C25.4785 5.80517 25.5324 5.80941 25.5887 5.80243C25.8725 5.77588 26.0786 5.51997 26.0525 5.23547L25.8565 3.23308L28.9866 2.91943L29.6987 10.1514L22.4135 10.8822L21.7006 3.65395L24.8316 3.33656Z" fill="#FF0000"/>
</svg>
