<svg width="32" height="41" viewBox="0 0 32 41" fill="none" xmlns="http://www.w3.org/2000/svg">
<path d="M15.9981 0.995605C7.71481 0.995605 0.998047 7.6686 0.998047 15.9058C0.998047 21.9068 8.97008 33.0628 13.2882 38.675C13.6072 39.0885 14.0178 39.4235 14.488 39.6541C14.9582 39.8846 15.4754 40.0045 15.9997 40.0045C16.524 40.0045 17.0413 39.8846 17.5115 39.6541C17.9817 39.4235 18.3922 39.0885 18.7113 38.675C23.0342 33.0618 30.9982 21.9057 30.9982 15.9047C30.9982 7.6686 24.2846 0.995605 15.9981 0.995605ZM15.9981 21.8536C14.7454 21.8536 13.5208 21.4844 12.4793 20.7925C11.4377 20.1007 10.6259 19.1174 10.1465 17.9669C9.66716 16.8165 9.54177 15.5505 9.78619 14.3292C10.0306 13.1079 10.6339 11.9861 11.5197 11.1056C12.4056 10.2251 13.5342 9.62556 14.7628 9.38269C15.9914 9.13982 17.2649 9.26458 18.4223 9.74119C19.5796 10.2178 20.5687 11.0248 21.2646 12.0603C21.9605 13.0957 22.3319 14.313 22.3317 15.5582C22.3315 17.2279 21.6641 18.8291 20.4763 20.0096C19.2886 21.1902 17.6777 21.8535 15.9981 21.8536Z" fill="#F43F08"/>
<path d="M15.9997 40.9998C15.3216 41.0024 14.6522 40.8485 14.0441 40.5502C13.436 40.252 12.9059 39.8175 12.4954 39.2809C10.3378 36.4808 7.22849 32.2405 4.66445 27.9471C1.56706 22.7599 2.76804e-09 18.7092 2.76804e-09 15.9042C-5.88475e-05 12.7586 0.938277 9.68358 2.69635 7.06806C4.45441 4.45254 6.95325 2.41398 9.87685 1.21019C12.8005 0.00639512 16.0175 -0.308566 19.1212 0.305134C22.2249 0.918834 25.0758 2.43363 27.3134 4.65796C28.8039 6.13137 29.9855 7.88401 30.79 9.81444C31.5944 11.7449 32.0057 13.8147 32 15.9042C32 18.7092 30.4329 22.7599 27.3355 27.9433C24.7715 32.2405 21.6617 36.4781 19.5045 39.2772C19.0944 39.8144 18.5643 40.2496 17.9561 40.5485C17.3479 40.8475 16.6782 41.0019 15.9997 40.9998ZM15.9997 1.9878C8.28058 1.98726 1.99936 8.23107 1.99936 15.9042C1.99936 20.0215 6.40335 28.1007 14.0825 38.0697C14.3076 38.3626 14.5976 38.6001 14.93 38.7635C15.2625 38.9269 15.6283 39.012 15.9992 39.012C16.37 39.012 16.7359 38.9269 17.0683 38.7635C17.4008 38.6001 17.6908 38.3626 17.9159 38.0697C25.595 28.1007 29.999 20.0215 29.999 15.9042C29.9995 8.23107 23.7221 1.98726 15.9997 1.98726V1.9878Z" fill="#000072"/>
<path d="M15.9998 22.8463C11.9562 22.8463 8.66644 19.5762 8.66644 15.5567C8.66644 11.5372 11.9562 8.26758 15.9998 8.26758C20.0433 8.26758 23.3331 11.5372 23.3331 15.5567C23.3331 19.5762 20.0433 22.8463 15.9998 22.8463ZM15.9998 10.2556C14.9449 10.2556 13.9137 10.5665 13.0366 11.1491C12.1595 11.7317 11.4759 12.5597 11.0723 13.5285C10.6686 14.4973 10.563 15.5633 10.7689 16.5917C10.9747 17.6202 11.4827 18.5648 12.2287 19.3062C12.9746 20.0477 13.925 20.5526 14.9596 20.7571C15.9942 20.9616 17.0666 20.8565 18.0412 20.4552C19.0157 20.0538 19.8486 19.3742 20.4346 18.5023C21.0206 17.6303 21.3333 16.6053 21.3332 15.5567C21.3316 14.1511 20.7692 12.8036 19.7693 11.8098C18.7694 10.8159 17.4137 10.257 15.9998 10.2556Z" fill="#000072"/>
</svg>
