<svg width="15" height="15" viewBox="0 0 15 15" fill="none" xmlns="http://www.w3.org/2000/svg">
<path d="M0 0.9375C0 0.419737 0.419737 0 0.9375 0H2.95582C3.4141 0 3.80522 0.331322 3.88057 0.783375L4.57367 4.942C4.64133 5.34798 4.43631 5.7506 4.06819 5.93466L2.61681 6.66035C3.66334 9.26091 5.73908 11.3366 8.33963 12.3832L9.06534 10.9318C9.24937 10.5637 9.65203 10.3586 10.058 10.4263L14.2166 11.1194C14.6687 11.1948 15 11.5859 15 12.0442V14.0625C15 14.5803 14.5803 15 14.0625 15H12.1875C5.45653 15 0 9.54347 0 2.8125V0.9375Z" fill="#262626"/>
</svg>
